<?xml version="1.0" encoding="UTF-8" standalone="no"?>
<!-- Created with Inkscape (http://www.inkscape.org/) -->

<svg
   width="83.455093mm"
   height="109.5959mm"
   viewBox="0 0 83.455093 109.5959"
   version="1.1"
   id="svg3542"
   xml:space="preserve"
   inkscape:version="1.2.2 (b0a84865, 2022-12-01)"
   sodipodi:docname="desenho-1.svg"
   xmlns:inkscape="http://www.inkscape.org/namespaces/inkscape"
   xmlns:sodipodi="http://sodipodi.sourceforge.net/DTD/sodipodi-0.dtd"
   xmlns="http://www.w3.org/2000/svg"
   xmlns:svg="http://www.w3.org/2000/svg"><sodipodi:namedview
     id="namedview3544"
     pagecolor="#ffffff"
     bordercolor="#000000"
     borderopacity="0.25"
     inkscape:showpageshadow="2"
     inkscape:pageopacity="0.0"
     inkscape:pagecheckerboard="0"
     inkscape:deskcolor="#d1d1d1"
     inkscape:document-units="mm"
     showgrid="false"
     inkscape:zoom="1.1893044"
     inkscape:cx="273.68939"
     inkscape:cy="575.1261"
     inkscape:window-width="1436"
     inkscape:window-height="870"
     inkscape:window-x="0"
     inkscape:window-y="37"
     inkscape:window-maximized="0"
     inkscape:current-layer="layer1" /><defs
     id="defs3539" /><g
     inkscape:label="Camada 1"
     inkscape:groupmode="layer"
     id="layer1"
     transform="translate(-44.878972,-93.705503)"><path
       style="opacity:0.98;fill:#FFF;fill-opacity:1;stroke:#1b1b00;stroke-width:0;stroke-linecap:round;stroke-linejoin:round;stroke-miterlimit:14.5;stroke-opacity:0"
       d="m 98.522888,186.66019 c -1.25601,-0.27927 -2.824146,-0.69836 -3.484744,-0.9313 -4.687887,-1.653 -9.330751,-5.42686 -12.011804,-9.76355 -0.678896,-1.09814 -1.286036,-2.22365 -1.349199,-2.50114 -0.104768,-0.46029 0.423371,-0.82888 6.020926,-4.2019 3.374673,-2.03354 6.203792,-3.7272 6.286929,-3.76369 0.08314,-0.0364 0.213479,0.13001 0.289648,0.37 0.213247,0.67188 2.157928,3.57119 3.089114,4.60554 1.09976,1.2216 2.747252,2.25725 4.316462,2.71343 1.54793,0.45 4.88426,0.33687 6.4413,-0.2184 2.00871,-0.71635 3.47692,-2.45071 4.24271,-5.01182 0.36505,-1.22088 0.3945,-3.13698 0.45708,-29.74191 l 0.0669,-28.43696 h 7.72292 7.72293 l -0.0686,29.30692 c -0.0617,26.36599 -0.10494,29.47061 -0.43036,30.93811 -2.1222,9.57149 -7.55577,14.9382 -16.97723,16.76837 -3.20843,0.62326 -9.22858,0.55898 -12.334908,-0.1317 z"
       id="path4929"
       inkscape:export-filename="../Dev/resume/src/assets/logo.svg"
       inkscape:export-xdpi="96"
       inkscape:export-ydpi="96" /><path
       style="opacity:0.98;fill:#FFF;fill-opacity:1;stroke:#1b1b00;stroke-width:0;stroke-linecap:round;stroke-linejoin:round;stroke-miterlimit:14.5;stroke-opacity:0"
       d="m 355.24967,767.61847 c -48.73682,-5.60554 -91.76211,-26.46008 -125.89266,-61.02071 -23.05806,-23.34861 -39.53845,-50.26345 -49.72018,-81.20022 -11.28099,-34.27681 -13.11357,-73.84865 -5.08448,-109.79199 16.91455,-75.72044 76.86434,-136.87972 152.56379,-155.6418 15.87984,-3.93581 25.66439,-5.20218 44.10926,-5.70883 31.30594,-0.85993 58.63875,4.26222 87.02566,16.30854 9.67924,4.1075 23.05671,11.09819 22.43238,11.72253 -0.21691,0.2169 -4.12321,-0.75852 -8.68069,-2.16759 -9.45178,-2.9223 -20.66113,-5.30627 -32.2499,-6.85881 -11.73558,-1.57221 -36.98845,-1.34472 -49.18842,0.44312 -69.61011,10.20099 -126.98287,56.4276 -151.37337,121.96518 -4.2748,11.48646 -8.37727,28.18401 -9.9867,40.64707 -1.73848,13.46243 -1.73848,36.41253 0,49.87497 9.80995,75.96635 66.05226,139.46969 140.22194,158.32496 16.74364,4.25654 28.85785,5.75672 46.78338,5.7935 20.97736,0.043 37.72071,-2.3343 55.79307,-7.9219 4.55748,-1.40908 8.46378,-2.38449 8.68069,-2.16759 0.62433,0.62434 -12.75314,7.61503 -22.43238,11.72252 -18.23836,7.73967 -38.13108,13.02059 -57.64662,15.30344 -11.46877,1.34158 -35.23668,1.53736 -45.35477,0.37361 z"
       id="path5618"
       transform="scale(0.26458333)" /></g></svg>
